<?xml version="1.0" encoding="UTF-8" standalone="no"?>
<!DOCTYPE svg PUBLIC "-//W3C//DTD SVG 1.1//EN" "http://www.w3.org/Graphics/SVG/1.1/DTD/svg11.dtd">
<svg version="1.1" xmlns="http://www.w3.org/2000/svg" xmlns:xlink="http://www.w3.org/1999/xlink" preserveAspectRatio="xMidYMid meet" viewBox="0 0 1920 1080" width="1920" height="1080"><defs><path d="M0 0L1920 0L1920 1080L0 1080L0 0Z" id="eVwObn1qo"></path><linearGradient id="gradientbbAAiJNwj" gradientUnits="userSpaceOnUse" x1="0" y1="0" x2="1920" y2="1080"><stop style="stop-color: #ffffff;stop-opacity: 1" offset="0%"></stop><stop style="stop-color: #3333ff;stop-opacity: 1" offset="100%"></stop></linearGradient><path d="M2821.75 252C2821.75 777.98 2394.73 1205 1868.75 1205C1342.78 1205 915.75 777.98 915.75 252C915.75 -273.98 1342.78 -701 1868.75 -701C2394.73 -701 2821.75 -273.98 2821.75 252Z" id="jw8ucF4om"></path><linearGradient id="gradientax1oNXOCA" gradientUnits="userSpaceOnUse" x1="960" y1="-153" x2="1920" y2="1080"><stop style="stop-color: #ffffff;stop-opacity: 1" offset="0%"></stop><stop style="stop-color: #00992d;stop-opacity: 1" offset="100%"></stop></linearGradient><path d="M2566.5 459C2566.5 870.73 2232.23 1205 1820.5 1205C1408.77 1205 1074.5 870.73 1074.5 459C1074.5 47.27 1408.77 -287 1820.5 -287C2232.23 -287 2566.5 47.27 2566.5 459Z" id="e1uTNNPLV"></path><linearGradient id="gradientbg05NtG3m" gradientUnits="userSpaceOnUse" x1="876.5" y1="-79" x2="1920" y2="1080"><stop style="stop-color: #ffffff;stop-opacity: 1" offset="0%"></stop><stop style="stop-color: #bfbf00;stop-opacity: 1" offset="100%"></stop></linearGradient></defs><g><g><g><use xlink:href="#eVwObn1qo" opacity="1" fill="url(#gradientbbAAiJNwj)"></use></g><g><use xlink:href="#jw8ucF4om" opacity="1" fill="url(#gradientax1oNXOCA)"></use></g><g><use xlink:href="#e1uTNNPLV" opacity="1" fill="url(#gradientbg05NtG3m)"></use></g></g></g></svg>